<?xml version="1.0" encoding="UTF-8" standalone="no"?>
<!-- Created with Inkscape (http://www.inkscape.org/) -->

<svg
   xmlns:dc="http://purl.org/dc/elements/1.1/"
   xmlns:cc="http://creativecommons.org/ns#"
   xmlns:rdf="http://www.w3.org/1999/02/22-rdf-syntax-ns#"
   xmlns:svg="http://www.w3.org/2000/svg"
   xmlns="http://www.w3.org/2000/svg"
   xmlns:sodipodi="http://sodipodi.sourceforge.net/DTD/sodipodi-0.dtd"
   xmlns:inkscape="http://www.inkscape.org/namespaces/inkscape"
   id="svg3039"
   version="1.1"
   inkscape:version="0.48.2 r9819"
   width="617.62195"
   height="251.20549"
   xml:space="preserve"
   sodipodi:docname="steria.svg"><metadata
     id="metadata3045"><rdf:RDF><cc:Work
         rdf:about=""><dc:format>image/svg+xml</dc:format><dc:type
           rdf:resource="http://purl.org/dc/dcmitype/StillImage" /><dc:title /></cc:Work></rdf:RDF></metadata><defs
     id="defs3043"><clipPath
       clipPathUnits="userSpaceOnUse"
       id="clipPath3055"><path
         d="m 0,0 3248.4,0 0,1460 L 0,1460 0,0 z"
         id="path3057"
         inkscape:connector-curvature="0" /></clipPath></defs><sodipodi:namedview
     pagecolor="#ffffff"
     bordercolor="#666666"
     borderopacity="1"
     objecttolerance="10"
     gridtolerance="10"
     guidetolerance="10"
     inkscape:pageopacity="0"
     inkscape:pageshadow="2"
     inkscape:window-width="1600"
     inkscape:window-height="838"
     id="namedview3041"
     showgrid="false"
     inkscape:zoom="1"
     inkscape:cx="296.6068"
     inkscape:cy="120.41423"
     inkscape:window-x="-8"
     inkscape:window-y="-8"
     inkscape:window-maximized="1"
     inkscape:current-layer="g3047"
     height="372.05px"
     fit-margin-top="0"
     fit-margin-left="0"
     fit-margin-right="0"
     fit-margin-bottom="0" /><g
     id="g3047"
     inkscape:groupmode="layer"
     inkscape:label="steria"
     transform="matrix(1.25,0,0,-1.25,-150.99212,291.47686)"><g
       id="g3049"
       transform="matrix(0.15715741,0,0,0.15715741,112.69509,18.963365)"><g
         id="g3051"><g
           id="g3053"
           clip-path="url(#clipPath3055)" /></g><path
         d="m 2092.8,1012.68 62.3984,0 0,267.602 -62.3984,0 0,-267.602 z"
         style="fill:#111987;fill-opacity:1;fill-rule:evenodd;stroke:none"
         id="path3061"
         inkscape:connector-curvature="0" /><path
         d="m 2092.8,1312.68 62.3984,0 0,48 -62.3984,0 0,-48 z"
         style="fill:#111987;fill-opacity:1;fill-rule:evenodd;stroke:none"
         id="path3063"
         inkscape:connector-curvature="0" /><path
         d="m 1237.2,1363.08 c -62.4,0 -62.4,0 -62.4,0 0,0 0,-78 0,-82.8 -4.8,0 -42,0 -42,0 0,-44.4 0,-44.4 0,-44.4 0,0 37.2,0 42,0 0,-6 0,-148.8 0,-148.8 0,-19.2 0,-74.4 111.6,-74.4 38.4,0 38.4,0 38.4,0 0,44.4 0,44.4 0,44.4 -27.6,0 -27.6,0 -27.6,0 -55.2,0 -60,15.6 -60,36 0,0 0,136.8 0,142.8 4.8,0 106.8,0 106.8,0 0,44.4 0,44.4 0,44.4 0,0 -102,0 -106.8,0 0,4.8 0,82.8 0,82.8"
         style="fill:#111987;fill-opacity:1;fill-rule:nonzero;stroke:none"
         id="path3065"
         inkscape:connector-curvature="0" /><path
         d="m 1561.2,1282.68 c -109.2,0 -184.8,-55.2 -184.8,-132 0,-80.4 80.4,-138 193.2,-138 7.2,0 116.4,0 121.2,0 l 0,42 c -4.8,0 -109.2,0 -116.4,0 -82.8,0 -124.8,40.8 -133.2,80.4 8.4,0 320.4,0 320.4,0 0,0 22.8,147.6 -200.4,147.6 z m -117.6,-102 c 18,39.6 60,62.4 123.6,62.4 91.2,0 118.8,-45.6 123.6,-62.4 -7.2,0 -236.4,0 -247.2,0"
         style="fill:#111987;fill-opacity:1;fill-rule:nonzero;stroke:none"
         id="path3067"
         inkscape:connector-curvature="0" /><path
         d="m 1821.6,1259.88 0,-247.2 c 62.4,0 62.4,0 62.4,0 0,0 0,207.6 0,210 76.8,22.8 166.8,13.2 166.8,13.2 0,44.4 0,44.4 0,44.4 -152.4,7.2 -214.8,-13.2 -229.2,-20.4"
         style="fill:#111987;fill-opacity:1;fill-rule:nonzero;stroke:none"
         id="path3069"
         inkscape:connector-curvature="0" /><path
         d="m 2570.4,1199.88 c 0,52.8 -55.2,80.4 -164.4,80.4 -135.6,0 -135.6,0 -135.6,0 0,-43.2 0,-43.2 0,-43.2 136.8,0 136.8,0 136.8,0 48,0 100.8,-1.2 100.8,-39.6 -50.4,-7.2 -297.6,0 -297.6,-102 0,-73.2 87.6,-85.2 140.4,-85.2 0,0 157.2,-4.8 219.6,25.2 l 0,164.4 z m -62.4,-44.4 c 0,-4.8 0,-82.8 0,-87.6 -34.8,-13.2 -105.6,-15.6 -159.6,-15.6 -18,0 -78,4.8 -78,40.8 0,42 99.6,51.6 237.6,62.4"
         style="fill:#111987;fill-opacity:1;fill-rule:nonzero;stroke:none"
         id="path3071"
         inkscape:connector-curvature="0" /><path
         d="m 934.801,1174.68 0,0 c -52.801,6 -104.403,10.8 -104.403,32.4 0,20.4 27.602,30 87.602,30 129.6,0 129.6,0 129.6,0 0,43.2 0,43.2 0,43.2 -129.6,0 -129.6,0 -129.6,0 -55.199,0 -150,-7.2 -150,-74.4 0,-62.4 84,-70.8 159.602,-75.6 57.597,-7.2 111.598,-13.2 111.598,-37.2 0,-30 -46.802,-50.4 -271.2,-32.4 l 0,-43.2 c 294,-30.003 334.8,27.6 334.8,78 0,64.8 -90,72 -167.999,79.2"
         style="fill:#111987;fill-opacity:1;fill-rule:nonzero;stroke:none"
         id="path3073"
         inkscape:connector-curvature="0" /><path
         d="m 3194.4,703.078 c -2.4,7.199 -20.4,16.801 -48,30 -69.6,27.598 -208.8,60 -346.8,76.801 -184.8,25.199 -367.2,22.797 -414,-52.801 -80.4,-127.199 4.8,-334.801 117.6,-397.199 16.8,-9.602 37.2,-15.602 56.4,-15.602 150,-7.199 309.6,66 432,147.602 127.2,88.797 214.8,182.398 202.8,211.199"
         style="fill:#ff5900;fill-opacity:1;fill-rule:nonzero;stroke:none"
         id="path3075"
         inkscape:connector-curvature="0" /><path
         d="m 3194.4,703.078 c -2.4,7.199 -20.4,16.801 -48,30 0,-2.402 0,-2.402 0,-2.402 13.2,-27.598 -81.6,-135.598 -208.8,-220.797 -123.6,-82.801 -285.6,-154.801 -432,-150 -2.4,0 -2.4,0 -2.4,0 16.8,-9.602 37.2,-15.602 56.4,-15.602 150,-7.199 309.6,66 432,147.602 127.2,88.797 214.8,182.398 202.8,211.199"
         style="fill:#bd0026;fill-opacity:1;fill-rule:nonzero;stroke:none"
         id="path3077"
         inkscape:connector-curvature="0" /><path
         d="m 2268,297.477 c -4.8,2.402 -9.6,2.402 -15.6,4.8 -132,42 -289.2,-20.398 -286.8,-42 0,-13.199 67.2,-66 142.8,-108 52.8,-30 106.8,-57.6012 150,-64.8004 19.2,-6 37.2,-2.3985 49.2,2.4023 48,27.5981 32.4,180.0001 -39.6,207.5981"
         style="fill:#ffb300;fill-opacity:1;fill-rule:nonzero;stroke:none"
         id="path3079"
         inkscape:connector-curvature="0" /><path
         d="m 2268,297.477 c -4.8,2.402 -9.6,2.402 -15.6,4.8 45.6,-52.8 63.6,-170.398 8.4,-212.3981 0,-2.4023 -2.4,-2.4023 -2.4,-2.4023 19.2,-6 37.2,-2.3985 49.2,2.4023 48,27.5981 32.4,180.0001 -39.6,207.5981"
         style="fill:#b32c02;fill-opacity:1;fill-rule:nonzero;stroke:none"
         id="path3081"
         inkscape:connector-curvature="0" /><path
         d="m 198,890.277 c -9.602,0 -16.801,0 -27.602,0 -61.199,-9.601 -121.1988,-60 -118.7964,-69.601 2.3984,-8.399 76.7964,-36 132.0004,-43.199 25.199,0 44.398,0 52.796,9.601 C 264,823.078 234,887.879 198,890.277"
         style="fill:#f0027f;fill-opacity:1;fill-rule:nonzero;stroke:none"
         id="path3083"
         inkscape:connector-curvature="0" /><path
         d="m 2367.6,547.078 c 0,4.801 -2.4,10.801 -2.4,13.199 -42,4.801 -132,12 -234,9.602 0,370.797 0,370.797 0,370.797 -13.2,0 -13.2,0 -13.2,0 0,-370.797 0,-370.797 0,-370.797 -87.6,-2.402 -182.4,-12 -259.2,-37.203 -40.8,21.601 -85.2,42 -132,62.402 -172.8,72 -390,129.598 -646.8,172.801 -397.199,67.199 -769.199,74.398 -836.398,74.398 2.398,-2.398 2.398,-7.199 2.398,-12 74.398,0 439.199,-9.601 831.6,-75.601 256.8,-42 471.6,-99.598 643.2,-172.797 177.6,-74.402 307.2,-164.402 385.2,-267.602 4.8,0 9.6,0 14.4,0 -55.2,78 -136.8,147.602 -247.2,207.602 172.8,55.199 424.8,32.398 494.4,25.199"
         style="fill:#111987;fill-opacity:1;fill-rule:nonzero;stroke:none"
         id="path3085"
         inkscape:connector-curvature="0" /><path
         d="m 198,890.277 c -9.602,0 -16.801,0 -27.602,0 33.602,-7.199 60,-69.601 36,-103.199 -6,-4.801 -13.199,-7.199 -22.796,-9.601 25.199,0 44.398,0 52.796,9.601 C 264,823.078 234,887.879 198,890.277"
         style="fill:#680032;fill-opacity:1;fill-rule:nonzero;stroke:none"
         id="path3087"
         inkscape:connector-curvature="0" /></g></g></svg>